<svg id="Layer_5" enable-background="new 0 0 64 64" height="512" viewBox="0 0 64 64" width="512" xmlns="http://www.w3.org/2000/svg"><g><path d="m51 16.414 7.707-7.707-1.414-1.414-6.293 6.293-2.293-2.293-1.414 1.414z"/><path d="m21 13h2v2h-2z"/><path d="m17 13h2v2h-2z"/><path d="m13 13h2v2h-2z"/><path d="m29 13h2v2h-2z"/><path d="m37 13h2v2h-2z"/><path d="m9 13h2v2h-2z"/><path d="m25 13h2v2h-2z"/><path d="m33 13h2v2h-2z"/><path d="m63 11c0-5.514-4.486-10-10-10-3.262 0-6.154 1.577-7.981 4h-41.019c-1.654 0-3 1.346-3 3v34c0 1.654 1.346 3 3 3h18.402l.039.078c.366.731.559 1.548.559 2.364v4.108c0 1.074.252 2.151.73 3.113l2.27 4.571v3.721l18 .047v-3.669l1.6-2.133c.903-1.204 1.4-2.696 1.4-4.2v-8h9c1.654 0 3-1.346 3-3v-23.019c2.423-1.827 4-4.719 4-7.981zm-10-8c4.411 0 8 3.589 8 8s-3.589 8-8 8-8-3.589-8-8 3.589-8 8-8zm-7.981 14h-38.019v-6h36c0 2.253.758 4.326 2.019 6zm-.019 36c0 1.075-.355 2.14-1 3l-2 2.667v2.331l-14-.038v-2.195l-2.479-4.992c-.341-.687-.521-1.455-.521-2.223v-4.108c0-1.125-.266-2.252-.77-3.259l-1.165-2.33c-.042-.085-.065-.182-.065-.277 0-.341.278-.618.714-.618 2.915 0 5.286 2.372 5.286 5.287v1.713 2h2v-2-1.713-15.245c0-.551.449-1 1-1s1 .449 1 1v9 4h2v-4c0-.551.449-1 1-1s1 .449 1 1v4h2v-4c0-.551.449-1 1-1s1 .449 1 1v2 2h2v-2c0-.551.449-1 1-1s1 .449 1 1zm12-11c0 .551-.449 1-1 1h-9v-1c0-1.654-1.346-3-3-3-.395 0-.77.081-1.116.22-.345-1.275-1.501-2.22-2.884-2.22-.771 0-1.468.301-2 .78-.532-.48-1.229-.78-2-.78-.352 0-.686.072-1 .184v-6.184c0-1.654-1.346-3-3-3s-3 1.346-3 3v10.257c-1.341-1.411-3.245-2.299-5.381-2.299-1.443 0-2.618 1.174-2.619 2.618 0 .404.096.809.276 1.172l.127.252h-17.403c-.551 0-1-.449-1-1v-34c0-.551.449-1 1-1h39.841c-.279.636-.497 1.304-.639 2h-38.202v10h42.025c1.669 1.25 3.733 2 5.975 2 1.422 0 2.774-.303 4-.841z"/><path d="m11 21c-3.309 0-6 2.691-6 6s2.691 6 6 6 6-2.691 6-6-2.691-6-6-6zm0 10c-2.206 0-4-1.794-4-4s1.794-4 4-4 4 1.794 4 4-1.794 4-4 4z"/><path d="m21 27h6v-6h-6zm2-4h2v2h-2z"/><path d="m21 35h6v-6h-6zm2-4h2v2h-2z"/><path d="m29 27h6v-6h-6zm2-4h2v2h-2z"/><path d="m37 27h6v-6h-6zm2-4h2v2h-2z"/><path d="m37 35h6v-6h-6zm2-4h2v2h-2z"/><path d="m45 37h10v-14h-10zm2-12h6v10h-6z"/><path d="m5 41h12v-6h-12zm2-4h8v2h-8z"/></g></svg>